<svg xmlns="http://www.w3.org/2000/svg" width="233" height="85" viewBox="0 0 233 85" fill="none"><g clip-path="url(#clip0_1152_1752)"><path d="M57.9756 42.4364L58.5789 38.3454L68.3883 20.2706C62.139 13.0838 52.9244 8.53125 42.6306 8.53125C23.8105 8.53125 8.55469 23.739 8.55469 42.4999C8.55469 61.2608 23.8105 76.4686 42.6306 76.4686C61.4508 76.4686 76.7066 61.2608 76.7066 42.4999C76.7066 42.3051 57.9714 42.4364 57.9714 42.4364H57.9756ZM42.6349 56.5049C34.8774 56.5049 28.5856 50.233 28.5856 42.4999C28.5856 34.7669 34.8774 28.4949 42.6349 28.4949C50.3923 28.4949 56.6841 34.7669 56.6841 42.4999C56.6841 50.233 50.3923 56.5049 42.6349 56.5049Z" fill="#0060A6"></path><path d="M42.6352 56.5101C50.3944 56.5101 56.6845 50.2398 56.6845 42.505C56.6845 34.7703 50.3944 28.5 42.6352 28.5C34.876 28.5 28.5859 34.7703 28.5859 42.505C28.5859 50.2398 34.876 56.5101 42.6352 56.5101Z" fill="white"></path><path d="M42.6352 56.5101C50.3944 56.5101 56.6845 50.2398 56.6845 42.505C56.6845 34.7703 50.3944 28.5 42.6352 28.5C34.876 28.5 28.5859 34.7703 28.5859 42.505C28.5859 50.2398 34.876 56.5101 42.6352 56.5101Z" fill="white"></path><path d="M59.2146 41.9298C58.9172 33.2523 51.9159 26.2773 43.2153 25.9809V6.85156H42.064V8.54978C23.7027 8.8547 8.88446 23.6263 8.57858 41.9298H6.88774C6.88774 42.1204 6.875 42.3109 6.875 42.5057C6.875 42.7006 6.88774 42.8869 6.88774 43.0817H8.57858C8.88446 61.3852 23.7027 76.1568 42.064 76.4617V78.1472C42.2552 78.1472 42.4464 78.1599 42.6418 78.1599C42.8372 78.1599 43.0241 78.1472 43.2196 78.1472V59.0306C51.9244 58.7341 58.9214 51.7549 59.2188 43.0817H78.3916V41.934H59.2188L59.2146 41.9298ZM42.0598 15.4867V21.7121C30.9928 22.0127 22.0798 30.8977 21.7782 41.9298H15.5331C15.839 27.4589 27.5432 15.7873 42.0598 15.4867ZM42.0598 69.5248C27.5432 69.2199 15.8348 57.5526 15.5331 43.0817H21.7782C22.0798 54.1138 30.9928 62.9987 42.0598 63.2994V69.5248ZM42.4506 56.5065C34.8418 56.4091 28.6902 50.2769 28.5925 42.6921H37.1614C37.2591 45.5634 39.5702 47.8672 42.4506 47.9646V56.5065ZM42.4506 37.0469C39.5702 37.1443 37.2591 39.4481 37.1614 42.3194H28.5925C28.6902 34.7346 34.8418 28.6023 42.4506 28.5049V37.0469ZM42.8245 56.5065V47.9646C45.7048 47.8672 48.0159 45.5634 48.1136 42.6921H56.6825C56.5848 50.2769 50.4332 56.4091 42.8245 56.5065ZM48.1136 42.3194C48.0159 39.4481 45.7048 37.1443 42.8245 37.0469V28.5049C50.4332 28.6023 56.5848 34.7346 56.6825 42.3194H48.1136Z" fill="#231F20"></path><path d="M70.6722 38.1162L72.2271 35.067H82.9839L84.6322 38.1162H90.5374L81.0254 20.8672H74.1176L64.75 38.1162H70.6764H70.6722ZM77.5545 24.8735L80.9956 31.353H74.2068L77.5545 24.8735Z" fill="white"></path><path d="M101.614 38.3105H110.171C115.502 38.3105 116.552 36.0236 116.552 33.1184V31.4964H111.245C111.245 33.6393 110.527 33.8765 108.136 33.8765H102.473C99.9618 33.8765 99.435 32.9236 99.435 30.4208V28.5616C99.435 26.4187 99.9618 25.1059 102.757 25.1059H108.539C110.115 25.1059 111.024 25.4616 111.024 26.7025V27.1768H116.331C116.377 22.2939 115.396 20.6719 107.847 20.6719H101.61C96.8308 20.6719 93.9844 21.8619 93.9844 26.9142V32.0597C93.9844 37.112 96.8308 38.302 101.61 38.302L101.614 38.3105Z" fill="white"></path><path d="M128.518 38.1162H133.825V25.1572H141.28V20.8672H121.062V25.1572H128.518V38.1162Z" fill="white"></path><path d="M152.189 20.8672H146.883V38.1162H152.189V20.8672Z" fill="white"></path><path d="M166.727 38.3098H175.237C180.016 38.3098 182.863 37.1156 182.863 32.0675V26.922C182.863 21.8697 180.016 20.6797 175.237 20.6797H166.727C161.948 20.6797 159.102 21.8697 159.102 26.922V32.0675C159.102 37.1198 161.948 38.3098 166.727 38.3098ZM164.552 28.5652C164.552 26.4223 165.079 25.1095 167.874 25.1095H174.09C176.885 25.1095 177.412 26.4223 177.412 28.5652V30.4243C177.412 32.9272 176.885 33.8801 174.374 33.8801H167.585C165.075 33.8801 164.548 32.9272 164.548 30.4243V28.5652H164.552Z" fill="white"></path><path d="M194.794 25.5849H194.845L204.812 38.1162H213.032V20.8672H207.726V33.4027H207.679L197.713 20.8672H189.492V38.1162H194.794V25.5849Z" fill="white"></path><path d="M103.464 46.8906H83.2422V51.1764H90.698V64.1354H96.0042V51.1764H103.464V46.8906Z" fill="white"></path><path d="M111.841 46.8906L102.469 64.1396H108.395L109.95 61.0905H120.707L122.355 64.1396H128.26L118.748 46.8906H111.841ZM111.938 57.3722L115.286 50.8927L118.727 57.3722H111.938Z" fill="white"></path><path d="M148.02 46.887H132.008V64.1361H137.314V59.6555H145.653C147.302 59.6555 147.829 60.2526 147.829 62.0609V64.1318H153.135V61.2012C153.135 58.3638 151.822 57.6777 150.242 57.3898V57.3432C152.68 56.7715 153.207 55.412 153.207 53.0997V52.0029C153.207 48.9029 152.107 46.8828 148.02 46.8828V46.887ZM148.041 53.5571C148.041 54.798 147.514 55.3655 146.083 55.3655H137.31V51.1728H145.602C147.276 51.1728 148.041 51.4566 148.041 52.9812V53.5529V53.5571Z" fill="white"></path><path d="M169.351 57.7952H175.949V58.2949C175.949 59.9635 174.564 60.1794 173.174 60.1794H167.511C164.835 60.1794 164.142 59.5357 164.142 56.5797V54.4368C164.142 51.4808 164.835 50.8371 167.511 50.8371H173.272C174.971 50.8371 175.949 51.0531 175.949 52.7683H181.157V52.2219C181.157 48.8636 180.32 46.6953 174.296 46.6953H166.313C161.534 46.6953 158.688 47.8853 158.688 52.9334V58.0789C158.688 63.1312 161.534 64.3212 166.313 64.3212H172.694C178.667 64.3212 181.25 64.0841 181.25 59.1249V54.2166H169.347V57.7909L169.351 57.7952Z" fill="white"></path><path d="M192.044 57.2282H204.955V53.6539H192.044V50.8927H205.669V46.8906H186.742V64.1354H205.979V59.9936H192.044V57.2282Z" fill="white"></path><path d="M210.523 51.1764H217.984V64.1354H223.29V51.1764H230.746V46.8906H210.523V51.1764Z" fill="white"></path><path d="M219.66 38.0481H220.225V34.3044H221.631V33.8047H218.258V34.3044H219.66V38.0481Z" fill="white"></path><path d="M223.219 34.4357L224.451 38.0481H224.961L226.197 34.495V38.0481H226.741V33.8047H225.985L224.965 36.7565C224.863 37.0571 224.787 37.2816 224.74 37.4383C224.698 37.2985 224.63 37.091 224.536 36.8115L223.529 33.8047H222.68V38.0481H223.223V34.4357H223.219Z" fill="white"></path><path d="M231.573 41.9262H81.1773H78.3691C78.3691 42.1167 78.3819 42.3073 78.3819 42.5021C78.3819 62.1862 62.3741 78.1394 42.6321 78.1394C22.8901 78.1394 6.88656 62.182 6.88656 42.5021C6.88656 22.8222 22.8901 6.86488 42.6363 6.86488C53.202 6.86488 62.697 11.4386 69.2394 18.7016L69.9999 17.2998C63.313 10.0877 53.801 5.5224 43.2099 5.36147V0.575955C43.2099 0.258333 42.9507 0 42.6321 0C42.3135 0 42.0543 0.258333 42.0543 0.575955V5.36147C21.9342 5.66638 5.68428 21.8651 5.3784 41.9262H0.577774C0.259149 41.9262 0 42.1845 0 42.5021C0 42.8197 0.259149 43.0781 0.577774 43.0781H5.3784C5.68428 63.1391 21.9384 79.3378 42.0586 79.6428V84.4283C42.0586 84.7459 42.3177 85.0042 42.6363 85.0042C42.955 85.0042 43.2141 84.7459 43.2141 84.4283V79.6428C63.3385 79.3378 79.5884 63.1349 79.8943 43.0781H231.577C231.896 43.0781 232.155 42.8197 232.155 42.5021C232.155 42.1845 231.896 41.9262 231.577 41.9262H231.573Z" fill="white"></path></g><defs><clipPath id="clip0_1152_1752"><rect width="232.151" height="85" fill="white"></rect></clipPath></defs></svg>