<svg xmlns="http://www.w3.org/2000/svg" viewBox="0 0 512 512" role="img" aria-labelledby="title desc">
  <title id="title">Alex Carter player portrait</title>
  <desc id="desc">Stylized neon gamer profile portrait with headset.</desc>
  <defs>
    <linearGradient id="bg" x1="0" y1="0" x2="1" y2="1">
      <stop offset="0" stop-color="#062615"/>
      <stop offset="0.52" stop-color="#0d6242"/>
      <stop offset="1" stop-color="#164d8f"/>
    </linearGradient>
    <radialGradient id="glow" cx="50%" cy="32%" r="60%">
      <stop offset="0" stop-color="#55ff8a" stop-opacity="0.8"/>
      <stop offset="1" stop-color="#55ff8a" stop-opacity="0"/>
    </radialGradient>
  </defs>
  <rect width="512" height="512" rx="42" fill="#06111f"/>
  <rect x="18" y="18" width="476" height="476" rx="34" fill="url(#bg)"/>
  <circle cx="256" cy="166" r="176" fill="url(#glow)"/>
  <path d="M86 420c18-82 86-128 170-128s152 46 170 128v34H86z" fill="#081a2d"/>
  <path d="M128 435c24-59 72-88 128-88s104 29 128 88z" fill="#0e8f61"/>
  <circle cx="256" cy="210" r="94" fill="#d7b48e"/>
  <path d="M159 214c8-76 50-119 111-119 53 0 87 33 92 74-30-20-63-26-101-23-41 4-72 24-102 68z" fill="#182339"/>
  <path d="M170 198c21-60 70-88 123-72 28 9 50 27 65 54-62-19-120-12-188 18z" fill="#223452"/>
  <path d="M155 218h29v76h-29c-16 0-29-13-29-29v-18c0-16 13-29 29-29zM328 218h29c16 0 29 13 29 29v18c0 16-13 29-29 29h-29z" fill="#071426"/>
  <path d="M153 234c0-62 45-113 103-113s103 51 103 113" fill="none" stroke="#39f4ff" stroke-width="14" stroke-linecap="round"/>
  <path d="M326 303c-26 32-87 34-126 5" fill="none" stroke="#11233a" stroke-width="16" stroke-linecap="round"/>
  <circle cx="218" cy="218" r="8" fill="#071426"/>
  <circle cx="294" cy="218" r="8" fill="#071426"/>
  <path d="M218 264c24 19 52 19 76 0" fill="none" stroke="#6b3e2e" stroke-width="10" stroke-linecap="round"/>
  <circle cx="360" cy="312" r="18" fill="#25f46d"/>
  <path d="M358 312h-54" stroke="#25f46d" stroke-width="11" stroke-linecap="round"/>
  <path d="M86 90h126M72 120h82M344 74h86M374 104h64" stroke="#ffffff" stroke-opacity="0.16" stroke-width="10" stroke-linecap="round"/>
</svg>
