<svg xmlns="http://www.w3.org/2000/svg" viewBox="0 0 512 512" role="img" aria-labelledby="title desc">
  <title id="title">Morgan Blake player portrait</title>
  <desc id="desc">Stylized pink and blue gamer profile portrait with short hair and headset.</desc>
  <defs>
    <linearGradient id="bg" x1="0" y1="0" x2="1" y2="1">
      <stop offset="0" stop-color="#23071c"/>
      <stop offset="0.48" stop-color="#7c255d"/>
      <stop offset="1" stop-color="#1a6ca8"/>
    </linearGradient>
    <radialGradient id="halo" cx="50%" cy="32%" r="62%">
      <stop offset="0" stop-color="#ff7bc6" stop-opacity="0.72"/>
      <stop offset="1" stop-color="#ff7bc6" stop-opacity="0"/>
    </radialGradient>
  </defs>
  <rect width="512" height="512" rx="42" fill="#06111f"/>
  <rect x="18" y="18" width="476" height="476" rx="34" fill="url(#bg)"/>
  <circle cx="255" cy="164" r="184" fill="url(#halo)"/>
  <path d="M86 420c18-80 86-126 170-126s152 46 170 126v35H86z" fill="#071426"/>
  <path d="M119 443c28-62 75-92 137-92s109 30 137 92z" fill="#752b73"/>
  <circle cx="256" cy="214" r="91" fill="#b98470"/>
  <path d="M159 209c3-69 42-116 103-126 53-9 96 17 113 64-47-10-81-2-108 20-28 22-63 34-108 42z" fill="#17162c"/>
  <path d="M166 183c34-59 88-84 151-62 28 10 49 29 62 59-64-31-132-30-213 3z" fill="#261936"/>
  <path d="M154 226h29v72h-29c-15 0-28-13-28-28v-16c0-15 13-28 28-28zM329 226h29c15 0 28 13 28 28v16c0 15-13 28-28 28h-29z" fill="#071426"/>
  <path d="M157 232c0-59 43-107 99-107s99 48 99 107" fill="none" stroke="#ff7bc6" stroke-width="13" stroke-linecap="round"/>
  <circle cx="219" cy="220" r="8" fill="#071426"/>
  <circle cx="293" cy="220" r="8" fill="#071426"/>
  <path d="M221 269c22 16 48 16 70 0" fill="none" stroke="#653528" stroke-width="9" stroke-linecap="round"/>
  <path d="M204 197c19-13 39-17 61-12M276 186c31-11 62-4 94 21" fill="none" stroke="#ff7bc6" stroke-width="9" stroke-linecap="round" opacity="0.55"/>
  <circle cx="352" cy="315" r="16" fill="#ff7bc6"/>
  <path d="M336 315h-43" stroke="#ff7bc6" stroke-width="10" stroke-linecap="round"/>
  <path d="M76 92h120M98 124h72M340 82h90M312 114h116" stroke="#ffffff" stroke-opacity="0.16" stroke-width="10" stroke-linecap="round"/>
</svg>
