<svg xmlns="http://www.w3.org/2000/svg" viewBox="0 0 512 512" role="img" aria-labelledby="title desc">
  <title id="title">Riley Chen player portrait</title>
  <desc id="desc">Stylized blue violet gamer profile portrait with visor and headset.</desc>
  <defs>
    <linearGradient id="bg" x1="0" y1="0" x2="1" y2="1">
      <stop offset="0" stop-color="#10173d"/>
      <stop offset="0.55" stop-color="#24338d"/>
      <stop offset="1" stop-color="#0b6d7e"/>
    </linearGradient>
    <radialGradient id="glow" cx="50%" cy="31%" r="60%">
      <stop offset="0" stop-color="#7d8cff" stop-opacity="0.82"/>
      <stop offset="1" stop-color="#7d8cff" stop-opacity="0"/>
    </radialGradient>
  </defs>
  <rect width="512" height="512" rx="42" fill="#06111f"/>
  <rect x="18" y="18" width="476" height="476" rx="34" fill="url(#bg)"/>
  <circle cx="256" cy="166" r="176" fill="url(#glow)"/>
  <path d="M86 421c18-83 86-130 170-130s152 47 170 130v34H86z" fill="#081a2d"/>
  <path d="M128 437c24-60 72-89 128-89s104 29 128 89z" fill="#234ec5"/>
  <circle cx="256" cy="214" r="92" fill="#ddb38d"/>
  <path d="M160 203c15-64 59-102 119-101 46 1 81 24 102 68-40-20-80-27-120-24-43 4-75 23-101 57z" fill="#16233f"/>
  <path d="M160 204c35-35 84-48 147-39 30 4 56 13 76 26-14 20-38 34-70 40-54 11-104 2-153-27z" fill="#7d8cff"/>
  <path d="M151 224h30v75h-30c-16 0-29-13-29-29v-17c0-16 13-29 29-29zM331 224h30c16 0 29 13 29 29v17c0 16-13 29-29 29h-30z" fill="#071426"/>
  <path d="M151 240c0-62 46-112 105-112s105 50 105 112" fill="none" stroke="#39f4ff" stroke-width="14" stroke-linecap="round"/>
  <path d="M324 309c-29 31-88 32-131 3" fill="none" stroke="#11233a" stroke-width="16" stroke-linecap="round"/>
  <circle cx="219" cy="222" r="8" fill="#071426"/>
  <circle cx="294" cy="222" r="8" fill="#071426"/>
  <path d="M219 266c24 18 51 18 75 0" fill="none" stroke="#6b3e2e" stroke-width="10" stroke-linecap="round"/>
  <circle cx="363" cy="316" r="18" fill="#7d8cff"/>
  <path d="M360 316h-56" stroke="#7d8cff" stroke-width="11" stroke-linecap="round"/>
  <path d="M84 88h124M70 119h82M340 76h88M372 108h62" stroke="#ffffff" stroke-opacity="0.15" stroke-width="10" stroke-linecap="round"/>
</svg>
