<svg xmlns="http://www.w3.org/2000/svg" viewBox="0 0 512 512" role="img" aria-labelledby="title desc">
  <title id="title">Sam Rivera player portrait</title>
  <desc id="desc">Stylized gold gamer profile portrait with cap and headphones.</desc>
  <defs>
    <linearGradient id="bg" x1="0" y1="0" x2="1" y2="1">
      <stop offset="0" stop-color="#251e06"/>
      <stop offset="0.52" stop-color="#6f6512"/>
      <stop offset="1" stop-color="#0d5d8f"/>
    </linearGradient>
    <radialGradient id="halo" cx="50%" cy="30%" r="62%">
      <stop offset="0" stop-color="#fbf35d" stop-opacity="0.7"/>
      <stop offset="1" stop-color="#fbf35d" stop-opacity="0"/>
    </radialGradient>
  </defs>
  <rect width="512" height="512" rx="42" fill="#06111f"/>
  <rect x="18" y="18" width="476" height="476" rx="34" fill="url(#bg)"/>
  <circle cx="256" cy="156" r="184" fill="url(#halo)"/>
  <path d="M84 421c20-82 88-128 172-128s152 46 172 128v34H84z" fill="#071426"/>
  <path d="M121 441c26-58 74-88 135-88s109 30 135 88z" fill="#756f15"/>
  <circle cx="256" cy="216" r="91" fill="#9f684f"/>
  <path d="M158 191c22-63 72-94 130-86 41 6 72 30 91 74-75-25-147-20-221 12z" fill="#101a2e"/>
  <path d="M149 166c34-56 86-82 146-72 47 8 83 37 105 87-73-26-156-31-251-15z" fill="#fbf35d"/>
  <path d="M150 167c83-18 166-13 251 15" fill="none" stroke="#06111f" stroke-width="12" stroke-linecap="round"/>
  <path d="M202 182h92c41 0 76 20 94 50-82-20-162-19-241 3 12-32 32-53 55-53z" fill="#071426" opacity="0.42"/>
  <path d="M156 224h28v74h-28c-16 0-29-13-29-29v-16c0-16 13-29 29-29zM328 224h28c16 0 29 13 29 29v16c0 16-13 29-29 29h-28z" fill="#071426"/>
  <path d="M157 231c0-58 44-105 99-105s99 47 99 105" fill="none" stroke="#fbf35d" stroke-width="12" stroke-linecap="round"/>
  <circle cx="219" cy="220" r="8" fill="#071426"/>
  <circle cx="293" cy="220" r="8" fill="#071426"/>
  <path d="M221 269c22 17 48 17 70 0" fill="none" stroke="#522a23" stroke-width="9" stroke-linecap="round"/>
  <circle cx="352" cy="315" r="16" fill="#fbf35d"/>
  <path d="M336 315h-43" stroke="#fbf35d" stroke-width="10" stroke-linecap="round"/>
  <path d="M78 94h112M104 126h62M342 84h88M324 116h58" stroke="#ffffff" stroke-opacity="0.16" stroke-width="10" stroke-linecap="round"/>
</svg>
